<mxfile host="app.diagrams.net" modified="2022-04-10T08:11:05.983Z" agent="5.0 (Windows NT 10.0; Win64; x64) AppleWebKit/537.36 (KHTML, like Gecko) Chrome/100.0.4896.75 Safari/537.36" etag="b-EfQEIr2cWnwMOP4aZU" version="17.4.2" type="github">
  <diagram id="C5RBs43oDa-KdzZeNtuy" name="Page-1">
    <mxGraphModel dx="1038" dy="547" grid="0" gridSize="10" guides="1" tooltips="1" connect="1" arrows="1" fold="1" page="0" pageScale="1" pageWidth="827" pageHeight="1169" math="0" shadow="0">
      <root>
        <mxCell id="WIyWlLk6GJQsqaUBKTNV-0" />
        <mxCell id="WIyWlLk6GJQsqaUBKTNV-1" parent="WIyWlLk6GJQsqaUBKTNV-0" />
        <mxCell id="BU4DOEZuZwijJ30Q9zKr-3" style="edgeStyle=orthogonalEdgeStyle;orthogonalLoop=1;jettySize=auto;html=1;exitX=0.5;exitY=1;exitDx=0;exitDy=0;exitPerimeter=0;entryX=0.5;entryY=0;entryDx=0;entryDy=0;fontFamily=Times New Roman;fontSize=1;rounded=1;endArrow=classic;endFill=1;" edge="1" parent="WIyWlLk6GJQsqaUBKTNV-1" source="BU4DOEZuZwijJ30Q9zKr-0" target="BU4DOEZuZwijJ30Q9zKr-1">
          <mxGeometry relative="1" as="geometry" />
        </mxCell>
        <mxCell id="BU4DOEZuZwijJ30Q9zKr-0" value="&lt;p&gt;开始&lt;/p&gt;" style="strokeWidth=1;html=1;shape=mxgraph.flowchart.terminator;whiteSpace=wrap;shadow=1;fillColor=#f5f5f5;fontColor=#333333;strokeColor=#666666;" vertex="1" parent="WIyWlLk6GJQsqaUBKTNV-1">
          <mxGeometry x="286" y="34" width="92" height="39" as="geometry" />
        </mxCell>
        <mxCell id="BU4DOEZuZwijJ30Q9zKr-9" style="edgeStyle=orthogonalEdgeStyle;rounded=1;orthogonalLoop=1;jettySize=auto;html=1;exitX=0.5;exitY=1;exitDx=0;exitDy=0;fontFamily=Times New Roman;fontSize=1;endArrow=classic;endFill=1;" edge="1" parent="WIyWlLk6GJQsqaUBKTNV-1" source="BU4DOEZuZwijJ30Q9zKr-1">
          <mxGeometry relative="1" as="geometry">
            <mxPoint x="332" y="161.39999389648438" as="targetPoint" />
          </mxGeometry>
        </mxCell>
        <mxCell id="BU4DOEZuZwijJ30Q9zKr-1" value="初始化API函数&lt;span style=&quot;font-family: &amp;#34;times new roman&amp;#34; , serif&quot;&gt;&lt;font style=&quot;font-size: 13px&quot;&gt;RegCreateKeyEx()&lt;/font&gt;&lt;/span&gt;" style="rounded=0;whiteSpace=wrap;html=1;shadow=1;fontFamily=Times New Roman;fontSize=1;strokeWidth=1;fillColor=#f5f5f5;fontColor=#333333;strokeColor=#666666;" vertex="1" parent="WIyWlLk6GJQsqaUBKTNV-1">
          <mxGeometry x="266.75" y="102" width="130.5" height="36" as="geometry" />
        </mxCell>
        <mxCell id="BU4DOEZuZwijJ30Q9zKr-10" style="edgeStyle=orthogonalEdgeStyle;rounded=1;orthogonalLoop=1;jettySize=auto;html=1;exitX=0.5;exitY=1;exitDx=0;exitDy=0;entryX=0.5;entryY=0;entryDx=0;entryDy=0;fontFamily=Times New Roman;fontSize=1;endArrow=classic;endFill=1;" edge="1" parent="WIyWlLk6GJQsqaUBKTNV-1" source="BU4DOEZuZwijJ30Q9zKr-5" target="BU4DOEZuZwijJ30Q9zKr-6">
          <mxGeometry relative="1" as="geometry" />
        </mxCell>
        <mxCell id="BU4DOEZuZwijJ30Q9zKr-5" value="确定注册表关于自启位置" style="rounded=0;whiteSpace=wrap;html=1;shadow=1;fontFamily=Times New Roman;fontSize=1;strokeWidth=1;fillColor=#f5f5f5;fontColor=#333333;strokeColor=#666666;" vertex="1" parent="WIyWlLk6GJQsqaUBKTNV-1">
          <mxGeometry x="265.5" y="163" width="133" height="37" as="geometry" />
        </mxCell>
        <mxCell id="BU4DOEZuZwijJ30Q9zKr-11" style="edgeStyle=orthogonalEdgeStyle;rounded=1;orthogonalLoop=1;jettySize=auto;html=1;exitX=0.5;exitY=1;exitDx=0;exitDy=0;entryX=0.5;entryY=0;entryDx=0;entryDy=0;fontFamily=Times New Roman;fontSize=1;endArrow=classic;endFill=1;" edge="1" parent="WIyWlLk6GJQsqaUBKTNV-1" source="BU4DOEZuZwijJ30Q9zKr-6" target="BU4DOEZuZwijJ30Q9zKr-7">
          <mxGeometry relative="1" as="geometry" />
        </mxCell>
        <mxCell id="BU4DOEZuZwijJ30Q9zKr-6" value="通过函数的参数添加键值" style="rounded=0;whiteSpace=wrap;html=1;shadow=1;fontFamily=Times New Roman;fontSize=1;strokeWidth=1;fillColor=#f5f5f5;fontColor=#333333;strokeColor=#666666;" vertex="1" parent="WIyWlLk6GJQsqaUBKTNV-1">
          <mxGeometry x="265.5" y="228" width="133" height="37" as="geometry" />
        </mxCell>
        <mxCell id="BU4DOEZuZwijJ30Q9zKr-12" style="edgeStyle=orthogonalEdgeStyle;rounded=1;orthogonalLoop=1;jettySize=auto;html=1;exitX=0.5;exitY=1;exitDx=0;exitDy=0;entryX=0.5;entryY=0;entryDx=0;entryDy=0;entryPerimeter=0;fontFamily=Times New Roman;fontSize=1;endArrow=classic;endFill=1;" edge="1" parent="WIyWlLk6GJQsqaUBKTNV-1" source="BU4DOEZuZwijJ30Q9zKr-7" target="BU4DOEZuZwijJ30Q9zKr-8">
          <mxGeometry relative="1" as="geometry" />
        </mxCell>
        <mxCell id="BU4DOEZuZwijJ30Q9zKr-7" value="实现自启功能" style="rounded=0;whiteSpace=wrap;html=1;shadow=1;fontFamily=Times New Roman;fontSize=1;strokeWidth=1;fillColor=#f5f5f5;fontColor=#333333;strokeColor=#666666;" vertex="1" parent="WIyWlLk6GJQsqaUBKTNV-1">
          <mxGeometry x="265.5" y="293" width="133" height="37" as="geometry" />
        </mxCell>
        <mxCell id="BU4DOEZuZwijJ30Q9zKr-8" value="&lt;p&gt;结束&lt;/p&gt;" style="strokeWidth=1;html=1;shape=mxgraph.flowchart.terminator;whiteSpace=wrap;shadow=1;fillColor=#f5f5f5;fontColor=#333333;strokeColor=#666666;" vertex="1" parent="WIyWlLk6GJQsqaUBKTNV-1">
          <mxGeometry x="286" y="358" width="92" height="39" as="geometry" />
        </mxCell>
      </root>
    </mxGraphModel>
  </diagram>
</mxfile>
